<?xml version="1.0" encoding="utf-8"?>
<!-- Svg Vector Icons : http://www.onlinewebfonts.com/icon -->
<!DOCTYPE svg PUBLIC "-//W3C//DTD SVG 1.1//EN" "http://www.w3.org/Graphics/SVG/1.1/DTD/svg11.dtd">
<svg version="1.1" xmlns="http://www.w3.org/2000/svg" xmlns:xlink="http://www.w3.org/1999/xlink" x="0px" y="0px" viewBox="0 0 1000 1000" enable-background="new 0 0 1000 1000" xml:space="preserve">
<metadata> Svg Vector Icons : http://www.onlinewebfonts.com/icon </metadata>
<g><g transform="translate(0.000000,502.000000) scale(0.100000,-0.100000)"><path d="M4977.1,4857.7c-73.7-31-162.9-135.7-168.7-192c-1.9-23.3-3.9-395.6-3.9-828c-1.9-756.3-3.9-791.2-46.5-940.5c-56.2-197.8-155.1-409.2-265.7-560.4c-46.5-65.9-351-387.8-674.8-719.4L3226,1016.1l-73.7,71.8l-73.7,71.7v252.1l-1.9,254l-131.9,129.9l-129.9,131.9l-178.4,7.8c-238.5,7.8-296.7-11.6-428.6-151.3l-110.5-116.4V1433v-236.6l124.1-129.9l126-128l244.3-1.9l246.3-1.9l73.7-75.6l73.7-75.6l-347.1-358.8L2291.3,67.8l-97,95l-97,95v170.7c0,213.3-23.3,267.6-160.9,399.5l-108.6,100.8h-234.6h-236.6l-129.9-124.1l-128-126.1V444V209.4l137.7-133.8L1376-60.2h199.7c143.5,0,219.1,9.7,257.9,29.1c58.2,31,58.2,29.1,141.6-52.4l83.4-83.4l-349.1-349.1l-349.1-349.1l-135.7,135.7L1089-595.4v221.1v221.1L964.9-23.3l-126,128L643,110.5c-108.6,3.9-217.2,1.9-244.3-3.9C338.5,91.1,165.9-67.9,127.1-141.6C109.7-176.5,100-259.9,100-399.5V-607l129.9-135.7l131.9-135.7l267.6,5.8l265.7,5.8l116.4-114.4c77.6-75.6,108.6-120.2,97-135.8c-11.6-13.6,133.8-174.5,453.8-492.6c316.1-316.1,477-463.5,486.7-447.9c9.7,15.5,207.5-168.7,593.4-554.6l577.9-577.9l-98.9-106.7c-193.9-211.4-254-457.6-170.6-700l42.7-126l-91.1-83.4c-190-172.6-467.3-285.1-754.4-306.4C1513.7-4561.1,926.1-4136.4,767.1-3512c-38.8,151.3-42.7,432.4-9.7,591.5c23.3,100.8,118.3,347.1,149.3,376.2c3.9,5.8,118.3-98.9,250.2-230.8c153.2-153.2,248.2-234.6,259.9-223c9.7,11.6,106.7,162.9,215.2,337.4l195.9,320l-494.5,494.5l-494.5,494.5l-296.7-199.8c-162.9-110.5-310.3-213.3-325.8-228.8c-25.2-21.3,3.9-58.2,211.4-265.7l240.5-240.4l-62.1-110.5c-155.1-275.4-236.6-674.8-197.8-977.4c114.4-890.1,849.4-1516.4,1727.8-1469.9c389.8,21.3,715.6,153.2,1029.7,422.7l69.8,58.2l124.1-40.7c95-33,153.2-40.7,250.2-34.9c269.5,19.4,211.4-29.1,1586.3,1341.9c1421.4,1415.6,1371,1357.5,1371,1650.3c-1.9,114.4-11.6,178.4-42.7,244.3l-40.7,91.2l178.4,174.5l176.5,176.5l46.5-104.7c52.3-124.1,195.9-265.7,327.7-325.8c69.8-33,128-42.7,256-42.7c285.1,0,283.1-1.9,897.9,608.9C8999,3.8,9010.6,19.3,9010.6,298.6c0,151.3-7.8,188.1-54.3,285.1c-64,131.9-211.4,269.6-335.5,318l-87.3,33l512,515.8c279.2,283.1,543,566.3,583.7,628.3c98.9,151.3,180.3,337.4,228.8,515.8c56.2,211.4,56.2,593.4-2,806.7c-133.8,496.4-453.8,878.5-917.2,1093.7c-244.3,114.4-389.8,145.4-684.5,145.4c-289,0-479-40.7-713.6-153.2c-195.9-93.1-292.8-166.8-595.3-453.8l-265.7-252.1l-153.2,137.7c-263.7,236.6-548.8,457.6-861,665.1C5200.1,4894.5,5126.4,4923.6,4977.1,4857.7z M8593.7,4273.9c415-110.5,769.9-444.1,911.4-851.3c122.2-356.8,77.6-777.6-120.2-1113.1c-87.3-151.3-3114.4-3190-3157-3172.6c-126,54.3-201.7,71.7-320,73.7c-112.5,0-157.1-9.7-261.8-58.2c-69.8-33-170.6-100.8-224.9-149.3l-97-89.2l-579.8,579.8L4166.5,71.7l40.7,54.3c73.7,102.8,1194.6,1204.2,1289.6,1266.3c135.7,91.2,351,190,527.5,238.5c149.3,42.7,182.3,44.6,973.5,44.6c798.9,0,818.3,0,872.6,40.7c91.2,67.9,141.6,159,141.6,257.9c0,79.5-19.4,122.2-141.6,323.8c-234.6,384-513.9,758.2-822.2,1105.3c-67.9,75.6-122.2,143.5-122.2,149.3c0,5.8,124.1,126,277.3,269.6c349,325.8,543,434.4,876.5,488.7C8178.7,4326.3,8481.2,4305,8593.7,4273.9z M6838.7,2577.1c110.5-27.1,166.8-52.4,199.7-89.2c56.3-65.9,56.3-151.3-5.8-211.4c-54.3-56.2-129.9-62.1-269.6-19.4c-50.4,15.5-149.3,34.9-219.1,40.7c-160.9,17.5-226.9,65.9-226.9,172.6c0,56.2,13.6,83.4,56.3,122.2c52.4,42.7,65.9,46.5,184.2,34.9C6627.3,2621.7,6755.4,2598.5,6838.7,2577.1z M8535.5,575.9c126.1-87.3,174.5-203.6,145.4-358.8c-11.6-64-79.5-141.6-510-576c-273.4-275.4-525.5-511.9-560.4-527.5c-160.9-69.8-345.2-3.9-426.6,155.1c-38.8,73.7-38.8,221.1,0,294.7c33,62.1,967.7,998.7,1031.7,1033.6C8287.3,636,8465.7,622.4,8535.5,575.9z M4738.6-1673.6l-352.9-354.9l-581.8,581.8l-581.8,581.8L3575.1-512l354.9,354.9l581.8-581.8l581.8-581.8L4738.6-1673.6z M3577-1685.2l575.9-575.9l-349.1-349.1l-349.1-349.1l-575.9,576l-574,574l337.4,351c184.2,193.9,341.3,351,347.1,351C2995.2-1107.3,3259-1367.2,3577-1685.2z M6094.1-1171.3c75.6-50.4,153.2-188.1,153.2-275.4c0-31-17.5-93.1-36.8-135.8c-25.2-52.4-422.7-461.5-1245-1281.8C3997.8-3828,3739.9-4074.3,3681.7-4093.7c-211.4-67.9-440.2,95-440.2,314.2c0,141.6,50.4,197.8,1285.7,1417.5c663.2,653.5,1223.6,1200.4,1245,1212C5842-1111.2,6020.4-1120.9,6094.1-1171.3z"/></g></g>
</svg>